<?xml version="1.0" encoding="utf-8"?><svg width="20" height="20" xmlns="http://www.w3.org/2000/svg" viewBox="0 0 20 20"><path d="M4 19l-.998.067.062.933H4v-1zm12 0v1h.936l.062-.933L16 19zM1 3H0v2h1V3zm18 2h1V3h-1v2zM9 9V8H7v1h2zm-2 5v1h2v-1H7zm6-5V8h-2v1h2zm-2 5v1h2v-1h-2zM2.002 4.067l1 15 1.996-.134-1-15-1.996.134zM4 20h12v-2H4v2zm12.998-.933l1-15-1.996-.134-1 15 1.996.134zM17 3H3v2h14V3zM1 5h2V3H1v2zm16 0h2V3h-2v2zM7 9v5h2V9H7zm4 0v5h2V9h-2zm-1-7c1.396 0 2.572.955 2.905 2.25l1.937-.5A5.002 5.002 0 0010 0v2zM7.094 4.25A3.002 3.002 0 0110 2V0a5.002 5.002 0 00-4.842 3.75l1.936.5z"/></svg>