<?xml version="1.0" encoding="utf-8"?><svg viewBox="0 0 24 24" xmlns="http://www.w3.org/2000/svg" xmlns:xlink="http://www.w3.org/1999/xlink"><style>:root>svg{display:none}:root>svg:target{display:block}</style><svg viewBox="0 0 20 20" id="backet" xmlns="http://www.w3.org/2000/svg"><path d="M4 19l-.998.067.062.933H4v-1zm12 0v1h.936l.062-.933L16 19zM1 3H0v2h1V3zm18 2h1V3h-1v2zM9 9V8H7v1h2zm-2 5v1h2v-1H7zm6-5V8h-2v1h2zm-2 5v1h2v-1h-2zM2.002 4.067l1 15 1.996-.134-1-15-1.996.134zM4 20h12v-2H4v2zm12.998-.933l1-15-1.996-.134-1 15 1.996.134zM17 3H3v2h14V3zM1 5h2V3H1v2zm16 0h2V3h-2v2zM7 9v5h2V9H7zm4 0v5h2V9h-2zm-1-7c1.396 0 2.572.955 2.905 2.25l1.937-.5A5.002 5.002 0 0010 0v2zM7.094 4.25A3.002 3.002 0 0110 2V0a5.002 5.002 0 00-4.842 3.75l1.936.5z"/></svg><svg fill="none" viewBox="0 0 12 8" id="bracket" xmlns="http://www.w3.org/2000/svg"><path d="M2 2l4 4 4-4" stroke="#666" stroke-width="2" stroke-linecap="square"/></svg><svg fill="none" viewBox="0 0 20 20" id="clock" xmlns="http://www.w3.org/2000/svg"><path d="M10 6v4l2.5 2.5M19 10a9 9 0 11-18 0 9 9 0 0118 0z"/></svg><svg viewBox="0 0 18 18" id="gallery" xmlns="http://www.w3.org/2000/svg"><path d="M12 3.5a2.5 2.5 0 100 5 2.5 2.5 0 000-5z"/><path fill-rule="evenodd" clip-rule="evenodd" d="M0 0h18v18H0V0zm16 9.836c-1.145 1.062-2.296 1.618-4 1.618-1.906 0-3.38-1.168-4.847-2.75A3 3 0 003.29 8.25l-.022.015L2 9.213V2h14v7.836z"/></svg><svg fill="none" viewBox="0 0 19 19" id="magnifier" xmlns="http://www.w3.org/2000/svg"><path d="M17 17l-3.95-3.95M15 8A7 7 0 111 8a7 7 0 0114 0z" stroke="#666" stroke-width="2" stroke-linecap="square"/></svg><svg fill="none" viewBox="0 0 24 24" id="smile" xmlns="http://www.w3.org/2000/svg"><path d="M17.5 12a5.5 5.5 0 11-11 0M21 12a9 9 0 11-18 0 9 9 0 0118 0z"/><path d="M11 9a1.5 1.5 0 11-3 0 1.5 1.5 0 013 0zM16 9a1.5 1.5 0 11-3 0 1.5 1.5 0 013 0z"/></svg></svg>